<svg width="884" height="448" viewBox="0 0 884 448" fill="none" xmlns="http://www.w3.org/2000/svg">
<g clip-path="url(#clip0_1_81)">
<rect width="884" height="448" fill="black"/>
<path d="M16.2005 -4.02886C20.6192 -4.02886 24.7353 -1.78443 27.1286 1.92996L86.9653 94.7975C89.1747 98.2265 92.8655 100.42 96.9336 100.721L301.689 115.878C303.559 116.016 305.376 116.557 307.017 117.464L482.123 214.226L571.182 -16.8072H-18.6176C-25.6749 -16.8072 -31.3959 -11.0862 -31.3959 -4.02886V-4.02886H16.2005Z" fill="#131313"/>
<path d="M482.123 214.226L307.017 117.464C305.376 116.557 303.559 116.016 301.689 115.878L96.9336 100.721C92.8655 100.42 89.1747 98.2265 86.9653 94.7975L27.1286 1.92996C24.7353 -1.78443 20.6192 -4.02886 16.2005 -4.02886H-31.3959L-33.9265 445.793C-33.967 453.001 -28.1349 458.866 -20.9267 458.866H176.928L258.638 388.699C264.12 383.991 264.711 375.716 259.953 370.277L191.709 292.265C185.13 284.745 189.142 272.922 198.94 270.959L482.123 214.226Z" fill="url(#paint0_linear_1_81)"/>
<path d="M482.123 214.226L198.94 270.959C189.142 272.922 185.13 284.745 191.709 292.265L259.953 370.277C264.711 375.716 264.12 383.991 258.638 388.699L176.928 458.866L418.064 465L555.921 408.862C567.541 404.13 566.378 387.31 554.217 384.222L525.804 377.007C521.054 375.801 517.385 372.025 516.317 367.242L482.123 214.226Z" fill="url(#paint1_linear_1_81)"/>
<path d="M571.182 -16.8072L482.123 214.226L587.312 175.086C590.647 173.845 594.334 174.02 597.533 175.579C608.396 180.877 634.651 193.681 652.949 202.604C689.618 198.399 742.544 192.33 763.088 189.974C768.316 189.375 772.635 185.686 774.077 180.626L815.384 35.7093C816.413 32.0973 818.955 29.1071 822.354 27.5088L917 -17L571.182 -16.8072Z" fill="url(#paint2_linear_1_81)"/>
<path d="M917 458.866V-17L822.354 27.5088C818.955 29.1071 816.413 32.0973 815.384 35.7093L774.077 180.626C772.635 185.686 768.316 189.375 763.088 189.974C742.544 192.33 689.618 198.399 652.949 202.604C628.483 206.326 777.526 321.394 810.602 346.657C814.575 349.692 816.373 354.646 815.381 359.546L804.288 414.36C802.941 421.016 806.943 427.587 813.475 429.443L917 458.866Z" fill="url(#paint3_linear_1_81)"/>
<path d="M418.064 465L917 458.866L813.475 429.443C806.943 427.587 802.941 421.016 804.288 414.36L815.381 359.546C816.373 354.646 814.575 349.692 810.602 346.657C777.526 321.394 628.483 206.326 652.949 202.604C634.651 193.681 608.396 180.877 597.533 175.579C594.334 174.02 590.647 173.845 587.312 175.086L482.123 214.226L516.317 367.242C517.385 372.025 521.054 375.801 525.804 377.007L554.217 384.222C566.378 387.31 567.541 404.13 555.921 408.862L418.064 465Z" fill="url(#paint4_linear_1_81)"/>
</g>
<defs>
<linearGradient id="paint0_linear_1_81" x1="-27.7503" y1="64.7815" x2="477.915" y2="219.776" gradientUnits="userSpaceOnUse">
<stop stop-color="#1B1B1B"/>
<stop offset="1" stop-color="#0E0E0E"/>
</linearGradient>
<linearGradient id="paint1_linear_1_81" x1="473.79" y1="459.378" x2="479.308" y2="214.539" gradientUnits="userSpaceOnUse">
<stop stop-color="#0E0E0E"/>
<stop offset="1" stop-color="#0F0F0F"/>
</linearGradient>
<linearGradient id="paint2_linear_1_81" x1="895.647" y1="1.40087" x2="482.896" y2="220.894" gradientUnits="userSpaceOnUse">
<stop stop-color="#1B1B1B"/>
<stop offset="1" stop-color="#0E0E0E"/>
</linearGradient>
<linearGradient id="paint3_linear_1_81" x1="776.381" y1="347.95" x2="481.473" y2="210.357" gradientUnits="userSpaceOnUse">
<stop stop-color="#1B1B1B"/>
<stop offset="1" stop-color="#0E0E0E"/>
</linearGradient>
<linearGradient id="paint4_linear_1_81" x1="956.582" y1="426.665" x2="482.604" y2="207.861" gradientUnits="userSpaceOnUse">
<stop stop-color="#1B1B1B"/>
<stop offset="1" stop-color="#0E0E0E"/>
</linearGradient>
<clipPath id="clip0_1_81">
<rect width="884" height="448" fill="white"/>
</clipPath>
</defs>
</svg>
